<svg width="36" height="36" viewBox="0 0 36 36" fill="none" xmlns="http://www.w3.org/2000/svg">
<path d="M14.991 6.36901C10.7742 7.45435 7.45436 10.7741 6.36903 14.991H0.240005C1.50457 7.45347 7.45349 1.50455 14.991 0.23999V6.36901Z" fill="#FF5900"/>
<path d="M6.36903 20.991C7.45436 25.2078 10.7742 28.5275 14.991 29.6128V35.7418C7.4535 34.4773 1.50457 28.5285 0.240005 20.991H6.36903Z" fill="#A600FF"/>
<path d="M35.742 20.991C34.4774 28.5285 28.5285 34.4773 20.991 35.7418V29.6128C25.2078 28.5275 28.5276 25.2078 29.6129 20.991H35.742Z" fill="#00FF8C"/>
<path d="M20.991 0.23999C28.5285 1.50455 34.4774 7.45347 35.742 14.991H29.6129C28.5276 10.7741 25.2078 7.45435 20.991 6.36901V0.23999Z" fill="#FF007B"/>
</svg>
