<svg width="200" height="200" viewBox="0 0 200 200" fill="none" xmlns="http://www.w3.org/2000/svg">
<path d="M0 50C0 22.3858 22.3858 0 50 0H150C177.614 0 200 22.3858 200 50V150C200 177.614 177.614 200 150 200H50C22.3858 200 0 177.614 0 150V50Z" fill="#1C1C1C"/>
<path d="M87.4624 51.5376C69.8923 56.0598 56.0598 69.8923 51.5376 87.4624H26C31.269 56.0562 56.0562 31.269 87.4624 26V51.5376Z" fill="#FF5900"/>
<path d="M51.5376 112.462C56.0598 130.032 69.8924 143.864 87.4624 148.387V173.924C56.0562 168.655 31.269 143.869 26 112.462H51.5376Z" fill="#A600FF"/>
<path d="M173.925 112.462C168.656 143.869 143.869 168.655 112.462 173.924V148.387C130.032 143.864 143.865 130.032 148.387 112.462H173.925Z" fill="#00FF8C"/>
<path d="M112.462 26C143.869 31.269 168.656 56.0562 173.925 87.4624H148.387C143.865 69.8923 130.032 56.0598 112.462 51.5376V26Z" fill="#FF007B"/>
</svg>
